<?xml version="1.0" encoding="UTF-8" standalone="no"?>
<!-- Created with Inkscape (http://www.inkscape.org/) -->

<svg
   xmlns:dc="http://purl.org/dc/elements/1.1/"
   xmlns:cc="http://creativecommons.org/ns#"
   xmlns:rdf="http://www.w3.org/1999/02/22-rdf-syntax-ns#"
   xmlns:svg="http://www.w3.org/2000/svg"
   xmlns="http://www.w3.org/2000/svg"
   xmlns:sodipodi="http://sodipodi.sourceforge.net/DTD/sodipodi-0.dtd"
   xmlns:inkscape="http://www.inkscape.org/namespaces/inkscape"
   width="297mm"
   height="210mm"
   viewBox="0 0 1052.3622 744.09448"
   id="svg2"
   version="1.1"
   inkscape:version="0.91 r13725"
   sodipodi:docname="Kloschilder.svg">
  <defs
     id="defs4" />
  <sodipodi:namedview
     id="base"
     pagecolor="#ffffff"
     bordercolor="#666666"
     borderopacity="1.0"
     inkscape:pageopacity="0.0"
     inkscape:pageshadow="2"
     inkscape:zoom="0.52028846"
     inkscape:cx="536.6696"
     inkscape:cy="136.98762"
     inkscape:document-units="px"
     inkscape:current-layer="layer1"
     showgrid="false"
     inkscape:window-width="1280"
     inkscape:window-height="963"
     inkscape:window-x="0"
     inkscape:window-y="0"
     inkscape:window-maximized="1" />
  <metadata
     id="metadata7">
    <rdf:RDF>
      <cc:Work
         rdf:about="">
        <dc:format>image/svg+xml</dc:format>
        <dc:type
           rdf:resource="http://purl.org/dc/dcmitype/StillImage" />
        <dc:title></dc:title>
      </cc:Work>
    </rdf:RDF>
  </metadata>
  <g
     inkscape:label="Layer 1"
     inkscape:groupmode="layer"
     id="layer1"
     transform="translate(0,-308.26772)">
    <path
       style="fill:none;fill-rule:evenodd;stroke:#ff0000;stroke-width:1.20809877px;stroke-linecap:butt;stroke-linejoin:miter;stroke-opacity:1"
       d="m 498.88024,578.94081 c -4.66923,15.55198 18.08307,47.24628 45.85891,24.67183 10.50685,-8.5393 134.99288,-108.8501 142.2199,-117.55148 26.58063,-26.17151 -6.39335,-62.67028 -35.9905,-44.11685 l -80.10732,65.01553 3.48255,-10.74028 69.949,-57.32431 c 40.14837,-30.37496 75.54181,20.21077 47.89185,50.50416 l -98.1029,82.57597 -35.99049,89.39458 c -5.62926,17.32958 -4.56746,24.78883 8.12636,40.63648 l 74.30278,88.23368 -97.39018,86.21162 c -47.39379,40.32246 0.0662,96.84444 47.59973,60.08173 L 715.11351,818.24946 c 14.41867,-14.29967 6.85446,-32.13987 3.19239,-39.61842 -3.66207,-7.47854 -87.79798,-106.08461 -87.79798,-106.08461 -10.50894,-12.5926 0.95975,-13.53906 7.11049,-5.66177 l 15.67195,20.02762 90.26721,-205.05889 c 5.63445,-13.98334 16.09921,-12.74655 10.30541,3.62776 l -89.21645,215.15319 c 0,0 62.21711,71.98107 65.61705,78.06093 7.13927,12.76663 6.96947,31.37497 -3.5534,43.047 l -32.71282,31.67255 13.86037,147.92338 c 6.32323,54.6158 81.0809,42.5428 76.62461,-7.48444 -0.42472,-4.76797 -38.8928,-333.64502 -38.8928,-341.77195 0,-8.12693 81.17117,-195.5141 81.17117,-195.5141 6.7527,-27.17339 -1.68882,-46.48398 -27.6592,-46.2326 l -49.03421,-0.28277 c -4.46013,4.46759 -12.77995,15.71355 -18.98784,22.74001 -6.20788,7.02647 -2.05239,-0.38313 1.69083,-6.99398 41.02471,-47.12114 12.85907,-100.18114 -29.36775,-111.02315 -39.29057,-10.08811 -102.23389,24.68861 -73.98189,94.66116 l -53.33538,-0.58016 c -14.60809,0.21126 -18.9265,3.18128 -24.37938,14.51138 l -10.62903,28.2541 -47.53632,0 c 9.84701,-27.04179 -3.69105,-41.90132 -31.78377,-41.51975 l -45.86518,-0.23103 c 14.84227,-55.38244 -35.80651,-116.43034 -98.375,-86.90791 -62.56848,29.52243 -41.60253,125.80384 17.4086,126.6289 11.45195,0.2973 14.97997,11.6822 -9.26843,9.15229 -32.99566,-8.09538 -40.33428,-26.79764 -53.97689,-49.66806 l -43.92035,0.41208 c -25.81308,-0.28117 -35.37992,21.81452 -20.48886,51.72998 l 106.89476,240.72921 c 15.45925,33.16685 63.84861,20.79925 42.68892,-25.0369 0,0 -79.68416,-176.84581 -85.05125,-194.82893 -5.44436,-15.95381 5.12015,-11.52346 9.54445,-0.6157 l 64.8328,154.19149 67.1125,-155.97961 c 5.56039,-10.67705 12.53267,-8.89641 8.8265,4.3107 l -71.42231,159.26239 17.23907,37.35353 c 18.89733,36.98503 -32.60846,73.79828 -57.05557,27.2955 l -53.23644,-107.33834 -63.19933,156.1456 c -7.27337,16.92184 2.71698,15.17559 12.66852,14.99656 l 67.23502,-0.38656 10.67252,45.97306 -56.31372,173.84091 c -13.30521,43.83709 51.29266,65.61299 69.24861,21.54549 l 45.96742,-140.58718 -16.62461,-55.41455 4.10621,-51.92397 9.8507,0 -4.92479,52.94978 55.97671,189.35962 c 17.97644,52.4184 90.60649,21.1833 73.78593,-24.99907 l -51.75413,-173.06197 6.13669,-40.34896 48.74383,0.30836 c 40.71899,0.1767 34.29856,-9.30779 26.57835,-28.21943 l -60.59312,-153.88411 21.5061,-52.709 56.04552,0 c 0,0 -9.20705,29.24272 -13.87628,44.79469 z"
       id="path4166"
       inkscape:connector-curvature="0"
       sodipodi:nodetypes="csccccccccccccczccccccscccsscccccsccccccczccccccccccccccccccccccccccccccccccczc" />
    <circle
       style="opacity:1;fill:#000000;fill-opacity:0.05490196;stroke:#ff0000;stroke-width:1.20809877;stroke-linecap:round;stroke-linejoin:round;stroke-miterlimit:4;stroke-dasharray:none;stroke-dashoffset:0;stroke-opacity:1"
       id="path4171"
       cx="499.90903"
       cy="495.36954"
       r="12.724624" />
  </g>
</svg>
